<svg class="thumb" width="315" height="283" viewBox="0,0,315,283" xmlns="http://www.w3.org/2000/svg" xmlns:inkscape="http://www.inkscape.org/namespaces/inkscape" xmlns:sodipodi="http://sodipodi.sourceforge.net/DTD/sodipodi-0.dtd" xmlns:xlink="http://www.w3.org/1999/xlink" xmlns:ns1="http://www.inkscape.org/namespaces/inkscape" xmlns:sketch="http://www.bohemiancoding.com/sketch/ns" data-guid="76816f69-e4dd-4dea-acbd-bb69a2ea853f"><defs></defs><g><g transform="matrix(0.5,0,0,0.5,90.424,125.5)"><svg width="270.5078125" height="268" style="overflow: visible;"><defs><linearGradient x1="0" y1="0.5" x2="1" y2="0.5" id="linearGradientSkbawxegqady"><stop offset="0%" stop-color="#000000"></stop><stop offset="100%" stop-color="#000000"></stop></linearGradient></defs><g transform="matrix(1,0,0,1,0,156)"><path d="M 49.9-71.09L 49.9-0.68L 45.7-0.68L 41.31-54L 33.2-5.52L 23.88-5.52L 16.8-52.88L 10.6-1.22L 2.69-1.71L 8.98-70.9L 22.71-70.9L 29.2-21L 36.28-71.09L 49.9-71.09ZM 60.59578125-69.48L 95.99578125-69.48L 95.99578125-62.79L 69.18578125-62.79L 69.18578125-33.01L 90.38578125000001-33.01L 90.38578125000001-25.78L 68.89578125-25.78L 68.89578125-8.11L 94.87578125-8.11L 94.87578125-0.39L 60.59578125-0.39L 60.59578125-69.48ZM 131.5415625-69.82L 142.9715625-69.68Q 140.9715625-52.25  139.8715625-34.89Q 138.77156250000002-17.53  138.43156249999998 0.1L 138.43156249999998 0.1L 130.6615625 0.1L 112.3515625-48.58Q 111.1815625-24.37  111.0315625-0.1L 111.0315625-0.1L 103.1715625 0Q 103.2715625-5.18  103.2715625-10.35Q 103.2715625-15.53  103.2715625-20.8L 103.2715625-20.8Q 103.2715625-45.02  102.5415625-69.19L 102.5415625-69.19L 113.4315625-68.99L 130.8615625-16.5Q 131.0515625-20.41  131.2015625-25.07Q 131.3515625-29.74  131.4715625-34.81Q 131.5915625-39.89  131.6615625-45.21Q 131.7415625-50.54  131.7415625-55.71L 131.7415625-55.71Q 131.7415625-59.38  131.6915625-62.92Q 131.6415625-66.46  131.5415625-69.82L 131.5415625-69.82ZM 169.52960937500004-8.69L 169.52960937500004-0.78L 148.13960937500002-0.78L 148.23960937500001-8.4Q 149.80960937500004-8.3  151.36960937500004-8.25Q 152.92960937500004-8.2  154.43960937500003-8.2L 154.43960937500003-8.2Q 154.68960937500003-18.02  154.80960937500004-27.83Q 154.92960937500004-37.65  154.92960937500004-47.61L 154.92960937500004-47.61Q 154.92960937500004-51.51  154.92960937500004-55.42Q 154.92960937500004-59.33  154.82960937500002-63.28L 154.82960937500002-63.28L 148.62960937500003-62.4L 148.13960937500002-71.19Q 151.06960937500003-71.09  153.99960937500003-71.09Q 156.92960937500004-71.09  159.85960937500002-71.09L 159.85960937500002-71.09Q 162.73960937500004-71.09  165.59960937500003-71.09Q 168.459609375-71.09  171.33960937500004-71.19L 171.33960937500004-71.19L 171.23960937500004-64.79Q 169.57960937500002-64.7  167.93960937500003-64.58Q 166.30960937500004-64.45  164.64960937500004-64.31L 164.64960937500004-64.31Q 163.56960937500003-50.2  162.71960937500003-36.25Q 161.86960937500004-22.31  161.22960937500002-8.2L 161.22960937500002-8.2Q 163.37960937500003-8.2  165.40960937500003-8.33Q 167.42960937500004-8.45  169.52960937500004-8.69L 169.52960937500004-8.69ZM 222.55625000000006-71.09L 222.55625000000006-0.68L 218.35625000000005-0.68L 213.96625000000006-54L 205.85625000000005-5.52L 196.53625000000005-5.52L 189.45625000000007-52.88L 183.25625000000005-1.22L 175.34625000000005-1.71L 181.63625000000005-70.9L 195.36625000000006-70.9L 201.85625000000005-21L 208.93625000000006-71.09L 222.55625000000006-71.09ZM 233.25203125000004-69.48L 268.65203125000005-69.48L 268.65203125000005-62.79L 241.84203125000005-62.79L 241.84203125000005-33.01L 263.04203125000004-33.01L 263.04203125000004-25.78L 241.55203125000006-25.78L 241.55203125000006-8.11L 267.53203125000005-8.11L 267.53203125000005-0.39L 233.25203125000004-0.39L 233.25203125000004-69.48Z" data-textpath="MENIME" data-text-anchor="middle" data-font-size="100" data-letterspacing="0" data-side="left" data-offset="0.5" data-dx="0" data-dy="0" data-xmlspace="preserve" data-href="" data-font="Englebert" data-font-src="/Content/clientfonts/englebert.woff" data-font-scale="contain" transform="translate(0,0)" data-x="0" data-y="0" fill="url('#linearGradientSkbawxegqady')"></path></g></svg></g><g transform="matrix(0.5,0,0,0.5,115.93,179.5)"><svg width="0" height="268" style="overflow: visible;"><defs><linearGradient x1="0" y1="0.5" x2="1" y2="0.5" id="linearGradientSkbawxegqae5"><stop offset="0%" stop-color="#000000"></stop><stop offset="100%" stop-color="#000000"></stop></linearGradient></defs><g transform="matrix(1,0,0,1,0,156)"><path d="" data-textpath="" data-text-anchor="middle" data-font-size="100" data-letterspacing="0" data-side="left" data-offset="0.5" data-dx="0" data-dy="0" data-xmlspace="preserve" data-href="" data-font="Englebert" data-font-src="/Content/clientfonts/englebert.woff" data-font-scale="contain" transform="translate(0,0)" data-x="0" data-y="0" fill="url('#linearGradientSkbawxegqae5')"></path></g></svg></g><g transform="matrix(1.5212,0,0,1.5212,55.743,0.046)"><svg width="95.09999999999994" height="90.97499999999997" viewBox="-262.49999999999994,351.425,95.09999999999994,90.97499999999997"><defs><linearGradient x1="0" y1="0.5" x2="1" y2="0.5" id="linearGradientSkbawxegqaea"><stop offset="0%" stop-color="#7a101c"></stop><stop offset="100%" stop-color="#7a101c"></stop></linearGradient></defs><g><path d="M-237.4,381.5c-4,2.2-6.9,5.3-8.8,7.8c-0.7,0.9-2.2,0.3-1.9-0.9c1.4-6.9,6.3-8.7,10.1-9    C-236.8,379.4-236.4,380.9-237.4,381.5z M-172.4,386.6v28.9c0,9.4-7.6,17.1-17,17.3v1.3c0,1.5-1.2,2.7-2.7,2.7h-1.7    c-1.5,0-2.7-1.2-2.7-2.7v-1.3h-38.3v1.9c0,1.5-1.2,2.7-2.7,2.7h-1.7c-1.5,0-2.7-1.2-2.7-2.7v-2c-8.7-0.9-15.6-8.3-15.6-17.2v-28.9    c0-9.5,7.8-17.3,17.3-17.3h11.4c2-1.4,4.2-2.4,6.5-3l-5.9-5.9c-0.9-0.9-0.9-2.4,0-3.3c0.9-0.9,2.4-0.9,3.3,0l7.8,7.8l7.9-7.8    c0.9-0.9,2.4-0.9,3.3,0c0.9,0.9,0.9,2.4,0,3.3l-5.9,5.9c2.4,0.6,4.6,1.7,6.5,3h15.6C-180.2,369.3-172.4,377.1-172.4,386.6z     M-187.2,388.5c0-6.8-5.6-12.4-12.4-12.4h-38.9c-6.8,0-12.4,5.6-12.4,12.4v25.3c0,6.8,5.6,12.4,12.4,12.4h38.9    c6.8,0,12.4-5.6,12.4-12.4V388.5z M-177.2,408.3c0-1.4-1.2-2.6-2.6-2.6c-1.4,0-2.6,1.2-2.6,2.6c0,1.4,1.2,2.6,2.6,2.6    C-178.4,410.9-177.2,409.8-177.2,408.3z M-177.2,401.1c0-1.4-1.2-2.6-2.6-2.6c-1.4,0-2.6,1.2-2.6,2.6c0,1.4,1.2,2.6,2.6,2.6    C-178.4,403.8-177.2,402.6-177.2,401.1z M-177.2,393.9c0-1.4-1.2-2.6-2.6-2.6c-1.4,0-2.6,1.2-2.6,2.6c0,1.4,1.2,2.6,2.6,2.6    C-178.4,396.5-177.2,395.3-177.2,393.9z" fill="url('#linearGradientSkbawxegqaea')"></path></g></svg></g><g transform="matrix(0.3654,0,0,0.3654,107.0961,52.9038)"><svg width="98.199" height="110" viewBox="0.9000000000000004,-5,98.199,110"><defs><linearGradient x1="0" y1="0.5" x2="1" y2="0.5" id="linearGradientSkbawxegqaeg"><stop offset="0%" stop-color="#ff3d54"></stop><stop offset="100%" stop-color="#ff3d54"></stop></linearGradient></defs><g><path d="M5.9,9.777C5.9,4.377,10.276,0,15.676,0c1.677,0,2.74,0.438,4.61,1.182l68.577,39.9c3.189,1.89,4.666,4.927,5.236,8.428  v0.982c-0.57,3.499-2.047,6.537-5.236,8.428L20.287,98.819c-1.871,0.745-2.934,1.181-4.61,1.181c-5.4,0-9.776-4.377-9.776-9.777  V9.777z" fill="url('#linearGradientSkbawxegqaeg')"></path></g></svg></g></g></svg>