<?xml version="1.0" encoding="UTF-8"?>
<svg enable-background="new 0 0 30.051 30.051" version="1.1" viewBox="0 0 30.051 30.051" xml:space="preserve" xmlns="http://www.w3.org/2000/svg">
	<style>
		.icon-color {
			fill: #fff;
		}
    </style>
	<g class="icon-color">
		<path d="m19.982 14.438l-6.24-4.536c-0.229-0.166-0.533-0.191-0.784-0.062-0.253 0.128-0.411 0.388-0.411 0.669v9.069c0 0.284 0.158 0.543 0.411 0.671 0.107 0.054 0.224 0.081 0.342 0.081 0.154 0 0.31-0.049 0.442-0.146l6.24-4.532c0.197-0.145 0.312-0.369 0.312-0.607 1e-3 -0.242-0.117-0.465-0.312-0.607z"/>
		<path d="m15.026 2e-3c-8.3 0-15.026 6.726-15.026 15.026 0 8.297 6.726 15.021 15.026 15.021 8.298 0 15.025-6.725 15.025-15.021 1e-3 -8.3-6.727-15.026-15.025-15.026zm0 27.54c-6.912 0-12.516-5.601-12.516-12.514 0-6.91 5.604-12.518 12.516-12.518 6.911 0 12.514 5.607 12.514 12.518 1e-3 6.913-5.603 12.514-12.514 12.514z"/>
	</g>
</svg>
